<svg width="431" height="397" viewBox="0 0 431 397" fill="none" xmlns="http://www.w3.org/2000/svg">
<mask id="mask0_211_37" style="mask-type:alpha" maskUnits="userSpaceOnUse" x="-1" y="0" width="433" height="397">
<path d="M323.5 70C284.5 -24 148.5 -19 109.5 70H0V396.5H427.5L430.5 70H323.5Z" fill="black" stroke="black"/>
</mask>
<g mask="url(#mask0_211_37)">
<path d="M39.3258 128.765C56.1327 96.0892 93.506 74.8678 108.986 70.4522C116.063 52.7897 133.312 33.6554 141.052 26.296H133.312C145.696 16.5816 163.535 9.73744 170.906 7.52965C169.137 0.464667 179.752 -1.49596 176.435 -6.8211C180.858 -4.61331 187.492 8.43916 189.703 2.91965C194.126 -2.79425 196.338 -2.59986 197.443 -14.7428C205.184 -11.4311 200.761 3.14045 209.606 -0.392055C218.452 -10.1064 227.666 -17.6865 232.826 -16.9506C229.509 -14.0069 230.394 -0.639255 238.355 2.01012C246.316 4.65949 252.361 -2.59985 252.729 -5.91156C262.46 -1.49595 263.049 7.70325 263.787 10.647C285.016 11.5301 298.064 19.4782 301.381 24.9978C299.612 23.2315 292.904 25.928 290.324 26.296C299.17 31.5947 319.072 44.868 323.495 52.5954H314.65C320.842 60.5435 324.232 68.6123 324.601 70.4522C359.984 79.2834 388.733 114.782 397.578 129.869L390.944 128.959C406.866 156.336 416.744 194.825 419.693 210.648L414.164 208.44C414.901 213.592 416.376 226.544 416.376 237.142C416.376 247.739 420.061 264.371 421.904 271.363L416.376 269.155C417.113 271.731 421.02 278.428 421.904 297.856C422.789 317.285 417.481 324.156 408.636 323.246C405.097 328.545 393.156 325.26 389.838 324.156C374.358 328.571 369.567 326.19 364.407 318.831C355.561 322.142 352.244 313.311 350.033 308.895C347.821 304.48 348.927 301.229 348.927 291.233C348.927 285.519 351.138 280 354.455 274.674C357.098 270.432 360.353 263.635 361.09 260.324H354.455C362.417 249.726 357.773 211.752 354.455 194.089L350.033 198.505C351.802 185.258 341.924 168.7 336.764 162.076C337.87 177.337 343.398 211.752 338.975 233.83C334.553 255.908 331.235 281.104 331.235 293.247L324.601 286.817C324.601 287.921 323.495 314.415 319.072 326.558C315.534 336.272 312.807 346.602 313.544 352.857L309.121 346.428C304.698 361.883 306.91 375.13 304.698 385.065C302.929 393.013 296.59 394.264 293.641 393.896H260.469C250.518 393.896 249.412 386.169 249.412 380.649C249.412 375.13 250.518 365.195 249.412 357.467C248.528 351.285 242.409 342.381 239.461 338.701C222.654 342.233 201.498 340.173 193.021 338.701C181.963 360.779 185.281 368.506 185.281 381.753C185.281 392.351 179.383 395 176.435 395H145.475C132.206 395 132.206 387.273 129.995 381.753C128.226 377.338 126.309 356.363 125.572 346.428L120.043 351.753C121.149 342.922 118.937 335.389 114.515 326.558C110.976 319.493 109.355 296.385 108.986 285.713C106.994 288.199 104.767 290.26 103.804 291.336C103.754 291.895 103.634 292.143 103.457 292.143C103.17 292.143 103.341 291.853 103.804 291.336C104.07 288.387 102.4 276.771 96.8231 247.077C91.5157 218.817 96.8231 167.401 96.8231 160.972C86.2082 178.635 86.8717 191.687 82.4488 199.415L80.2374 192.986C71.3916 227.427 74.3402 252.77 78.0259 261.233L73.6031 259.22C74.4876 261.869 78.3945 269.155 80.2374 272.467C82.0802 275.042 85.766 283.506 85.766 296.753C85.766 318.831 73.6031 322.684 68.0745 320.844C60.3344 330.779 45.9601 330.779 39.3258 326.558C30.4801 329.207 26.7943 325.454 26.0572 323.246C22.74 323.246 15 319.935 15 302.272C15 288.142 17.9486 272.835 19.4229 266.947L15 270.065C19.4229 248.87 19.7914 219.111 19.4229 207.336L15 210.454C19.4229 176.895 37.4829 140.366 45.9601 127.855L39.3258 128.765Z" fill="#28BAE0"/>
</g>
</svg>
