<svg xmlns="http://www.w3.org/2000/svg" viewBox="0 0 123.99 60.09"><path style="fill:#323243;" d="M119.8,14.8A30.18,30.18,0,0,0,108.55,4,32.25,32.25,0,0,0,77.64,4,29.88,29.88,0,0,0,69,11.22h0l-26.37,29a39.65,39.65,0,0,1-3.93,3.39A14,14,0,0,1,31,45.71a14.28,14.28,0,0,1-10.84-4.46,15.82,15.82,0,0,1-4.23-11.31,15.63,15.63,0,0,1,4.23-11.2A14.3,14.3,0,0,1,31,14.28a13.67,13.67,0,0,1,7.83,2.2,11.21,11.21,0,0,1,1.63,1.2L50.17,7.13a51.33,51.33,0,0,0-4.56-3.35A28.62,28.62,0,0,0,30.76,0,31.07,31.07,0,0,0,15.28,4,29.78,29.78,0,0,0,4.12,14.74,30,30,0,0,0,15.26,56.09a30.87,30.87,0,0,0,15.48,4,28.42,28.42,0,0,0,14.79-3.83,52.58,52.58,0,0,0,4.72-3.52l13.36-14,18.08-19,.15-.15h0c.2-.24.39-.49.61-.72a14.85,14.85,0,0,1,21-.22l.28.28A15.79,15.79,0,0,1,108,30.11a15.45,15.45,0,0,1-4.23,11.14,15.12,15.12,0,0,1-21.28.06,15.19,15.19,0,0,1-4.13-10L65.83,44.12c.2.38.4.76.62,1.13A29.29,29.29,0,0,0,77.53,56.1,31.18,31.18,0,0,0,93,60a31.5,31.5,0,0,0,15.54-3.94,30.11,30.11,0,0,0,11.25-10.85A29,29,0,0,0,124,30,28.66,28.66,0,0,0,119.8,14.8Z"/></svg>